<?xml version="1.0" encoding="UTF-8" standalone="no"?>
<svg
   xmlns:dc="http://purl.org/dc/elements/1.1/"
   xmlns:cc="http://creativecommons.org/ns#"
   xmlns:rdf="http://www.w3.org/1999/02/22-rdf-syntax-ns#"
   xmlns:svg="http://www.w3.org/2000/svg"
   xmlns="http://www.w3.org/2000/svg"
   viewBox="0 0 518.008 53.665333"
   height="53.665333"
   width="518.008"
   xml:space="preserve"
   id="svg2"
   version="1.1"><metadata
     id="metadata8"><rdf:RDF><cc:Work
         rdf:about=""><dc:format>image/svg+xml</dc:format><dc:type
           rdf:resource="http://purl.org/dc/dcmitype/StillImage" /></cc:Work></rdf:RDF></metadata><defs
     id="defs6" /><g
     transform="matrix(1.3333333,0,0,-1.3333333,0,53.665333)"
     id="g10"><g
       transform="translate(28.426,20.125)"
       id="g12"><g
         id="g14"><g
           id="g16"><g
             id="g18"><g
               id="g20"><path
                 id="path22"
                 style="fill:#e6e6e6;fill-opacity:1;fill-rule:nonzero;stroke:#000000;stroke-width:0.3985;stroke-linecap:butt;stroke-linejoin:miter;stroke-miterlimit:10;stroke-dasharray:none;stroke-opacity:1"
                 d="m 24.24237,19.92554 h -48.48474 c -2.20094,0 -3.98511,-1.78418 -3.98511,-3.98511 v -31.88086 c 0,-2.20093 1.78417,-3.98511 3.98511,-3.98511 h 48.48474 c 2.20094,0 3.98511,1.78418 3.98511,3.98511 v 31.88086 c 0,2.20093 -1.78417,3.98511 -3.98511,3.98511 z" /></g><g
               transform="translate(-24.906,-3.452)"
               id="g24"><g
                 transform="translate(22.291)"
                 id="g26"><g
                   transform="translate(-25.811,-16.673)"
                   id="g28"><text
                     id="text32"
                     style="font-variant:normal;font-size:9.96259975px;font-family:'URW Palladio L';-inkscape-font-specification:URWPalladioL-Roma;writing-mode:lr-tb;fill:#000000;fill-opacity:1;fill-rule:nonzero;stroke:none"
                     transform="matrix(1,0,0,-1,25.811,16.673)"><tspan
                       id="tspan30"
                       y="0"
                       x="0">S</tspan></text>
<g
                     transform="translate(3.52,16.673)"
                     id="g34" /></g></g><g
                 transform="translate(24.906,3.452)"
                 id="g36" /></g></g><g
             id="g38"><g
               id="g40"><path
                 id="path42"
                 style="fill:#e6e6e6;fill-opacity:1;fill-rule:nonzero;stroke:#000000;stroke-width:0.3985;stroke-linecap:butt;stroke-linejoin:miter;stroke-miterlimit:10;stroke-dasharray:none;stroke-opacity:1"
                 d="M 134.7948,19.92554 H 86.31003 c -2.20094,0 -3.98511,-1.78418 -3.98511,-3.98511 v -31.88086 c 0,-2.20093 1.78417,-3.98511 3.98511,-3.98511 h 48.48477 c 2.20094,0 3.9851,1.78418 3.9851,3.98511 v 31.88086 c 0,2.20093 -1.78416,3.98511 -3.9851,3.98511 z" /></g><g
               transform="translate(85.645,-3.447)"
               id="g44"><g
                 transform="translate(21.863)"
                 id="g46"><g
                   transform="translate(-135.934,-16.678)"
                   id="g48"><text
                     id="text52"
                     style="font-variant:normal;font-size:9.96259975px;font-family:'URW Palladio L';-inkscape-font-specification:URWPalladioL-Roma;writing-mode:lr-tb;fill:#000000;fill-opacity:1;fill-rule:nonzero;stroke:none"
                     transform="matrix(1,0,0,-1,135.934,16.678)"><tspan
                       id="tspan50"
                       y="0"
                       x="0">E</tspan></text>
<g
                     transform="translate(114.071,16.678)"
                     id="g54" /></g></g><g
                 transform="translate(-85.645,3.447)"
                 id="g56" /></g></g><g
             id="g58"><g
               id="g60"><path
                 id="path62"
                 style="fill:#e6e6e6;fill-opacity:1;fill-rule:nonzero;stroke:#000000;stroke-width:0.3985;stroke-linecap:butt;stroke-linejoin:miter;stroke-miterlimit:10;stroke-dasharray:none;stroke-opacity:1"
                 d="m 245.34721,19.92554 h -48.48475 c -2.20095,0 -3.98511,-1.78418 -3.98511,-3.98511 v -31.88086 c 0,-2.20093 1.78416,-3.98511 3.98511,-3.98511 h 48.48475 c 2.20095,0 3.98511,1.78418 3.98511,3.98511 v 31.88086 c 0,2.20093 -1.78416,3.98511 -3.98511,3.98511 z" /></g><g
               transform="translate(196.196,-3.447)"
               id="g64"><g
                 transform="translate(23.228)"
                 id="g66"><g
                   transform="translate(-247.85,-16.678)"
                   id="g68"><text
                     id="text72"
                     style="font-variant:normal;font-size:9.96259975px;font-family:'URW Palladio L';-inkscape-font-specification:URWPalladioL-Roma;writing-mode:lr-tb;fill:#000000;fill-opacity:1;fill-rule:nonzero;stroke:none"
                     transform="matrix(1,0,0,-1,247.85,16.678)"><tspan
                       id="tspan70"
                       y="0"
                       x="0">I</tspan></text>
<g
                     transform="translate(224.622,16.678)"
                     id="g74" /></g></g><g
                 transform="translate(-196.196,3.447)"
                 id="g76" /></g></g><g
             id="g78"><g
               id="g80"><path
                 id="path82"
                 style="fill:#e6e6e6;fill-opacity:1;fill-rule:nonzero;stroke:#000000;stroke-width:0.3985;stroke-linecap:butt;stroke-linejoin:miter;stroke-miterlimit:10;stroke-dasharray:none;stroke-opacity:1"
                 d="m 355.89963,19.92554 h -48.48476 c -2.20094,0 -3.98511,-1.78418 -3.98511,-3.98511 v -31.88086 c 0,-2.20093 1.78417,-3.98511 3.98511,-3.98511 h 48.48476 c 2.20094,0 3.98511,1.78418 3.98511,3.98511 v 31.88086 c 0,2.20093 -1.78417,3.98511 -3.98511,3.98511 z" /></g><g
               transform="translate(306.747,-3.447)"
               id="g84"><g
                 transform="translate(21.579)"
                 id="g86"><g
                   transform="translate(-356.752,-16.678)"
                   id="g88"><text
                     id="text92"
                     style="font-variant:normal;font-size:9.96259975px;font-family:'URW Palladio L';-inkscape-font-specification:URWPalladioL-Roma;writing-mode:lr-tb;fill:#000000;fill-opacity:1;fill-rule:nonzero;stroke:none"
                     transform="matrix(1,0,0,-1,356.752,16.678)"><tspan
                       id="tspan90"
                       y="0"
                       x="0">R</tspan></text>
<g
                     transform="translate(335.173,16.678)"
                     id="g94" /></g></g><g
                 transform="translate(-306.747,3.447)"
                 id="g96" /></g></g><g
             id="g98"><path
               id="path100"
               style="fill:none;stroke:#000000;stroke-width:0.79701;stroke-linecap:butt;stroke-linejoin:miter;stroke-miterlimit:10;stroke-dasharray:none;stroke-opacity:1"
               d="M 28.42673,0 H 75.43748" /><g
               transform="translate(75.43748)"
               id="g102"><g
                 id="g104"><path
                   id="path106"
                   style="fill:#000000;fill-opacity:1;fill-rule:nonzero;stroke:#000000;stroke-width:0.79701;stroke-linecap:butt;stroke-linejoin:miter;stroke-miterlimit:10;stroke-dasharray:none;stroke-opacity:1"
                   d="M 5.14154,0 C 4.51015,0.16502 1.73468,1.10016 0,2.1178 V -2.1178 C 1.73468,-1.10016 4.51015,-0.16502 5.14154,0 Z" /></g></g></g><g
             id="g108"><path
               id="path110"
               style="fill:none;stroke:#000000;stroke-width:0.79701;stroke-linecap:butt;stroke-linejoin:miter;stroke-miterlimit:10;stroke-dasharray:none;stroke-opacity:1"
               d="M 138.97916,0 H 185.9899" /><g
               transform="translate(185.9899)"
               id="g112"><g
                 id="g114"><path
                   id="path116"
                   style="fill:#000000;fill-opacity:1;fill-rule:nonzero;stroke:#000000;stroke-width:0.79701;stroke-linecap:butt;stroke-linejoin:miter;stroke-miterlimit:10;stroke-dasharray:none;stroke-opacity:1"
                   d="M 5.14154,0 C 4.51015,0.16502 1.73468,1.10016 0,2.1178 V -2.1178 C 1.73468,-1.10016 4.51015,-0.16502 5.14154,0 Z" /></g></g></g><g
             id="g118"><path
               id="path120"
               style="fill:none;stroke:#000000;stroke-width:0.79701;stroke-linecap:butt;stroke-linejoin:miter;stroke-miterlimit:10;stroke-dasharray:none;stroke-opacity:1"
               d="m 249.53157,0 h 47.01076" /><g
               transform="translate(296.54233)"
               id="g122"><g
                 id="g124"><path
                   id="path126"
                   style="fill:#000000;fill-opacity:1;fill-rule:nonzero;stroke:#000000;stroke-width:0.79701;stroke-linecap:butt;stroke-linejoin:miter;stroke-miterlimit:10;stroke-dasharray:none;stroke-opacity:1"
                   d="M 5.14154,0 C 4.51015,0.16502 1.73468,1.10016 0,2.1178 V -2.1178 C 1.73468,-1.10016 4.51015,-0.16502 5.14154,0 Z" /></g></g></g></g></g></g></g></svg>